<?xml version="1.0" encoding="utf-8"?>
<!-- Generator: Adobe Illustrator 22.1.0, SVG Export Plug-In . SVG Version: 6.00 Build 0)  -->
<svg version="1.1" id="图层_1" xmlns="http://www.w3.org/2000/svg" xmlns:xlink="http://www.w3.org/1999/xlink" x="0px" y="0px"
	 viewBox="0 0 232 68.2" style="enable-background:new 0 0 232 68.2;" xml:space="preserve">
<style type="text/css">
	.st0{fill:#946429;}
	.st1{fill:#603390;}
	.st2{fill:#007941;}
	.st3{fill:#0079AE;}
	.st4{fill:#DD2E26;}
	.st5{display:none;}
	.st6{display:inline;}
	.st7{display:inline;fill:#946429;}
</style>
<g id="TM">
	<g>
		<path class="st0" d="M22.5,42.8h-7.7v0.5c1.7,0.5,2.6,1.4,2.6,1.4v4.2l0,0v0.9c0,0-0.5,1.4-3.1,1.7c-0.2,0-0.5,0-0.8,0
			c-3,0-5.4-1.1-7.2-3.2c-1.5-1.8-2.2-4-2.2-6.7c0-2.8,0.8-5,2.5-6.6c1.5-1.5,3.7-2.3,6.6-2.3c0.6,0,1.1,0.1,1.6,0.2
			c1.7,0.6,2.8,1.5,3.7,2.4c0.4,0.5,0.8,1,1.1,1.4c0.4,0.8,0.6,1.3,0.6,1.3l0.5,0.1v-2.8c0,0,0,0,0,0V35c-0.1-0.2-0.3-0.3-0.4-0.5
			c-1-1.3-2.4-2.1-3.7-2.5c-1-0.4-2-0.6-2.7-0.6c-0.1,0-0.2,0-0.3,0c-2.7,0-5,0.5-6.8,1.4c-1.8,0.9-3.2,2.2-4.2,3.8
			c-1,1.6-1.5,3.5-1.5,5.6c0,2,0.5,3.8,1.4,5.4c0.9,1.6,2.3,2.8,4,3.7c1.5,0.8,3.3,1.2,5.2,1.3c1,0.1,3.4,0.2,5.6-0.4
			c0.3-0.1,0.5-0.1,0.6-0.2c1.2-0.4,2.2-1.2,2.8-2.3v-0.4h0v-5.2c0.4-0.3,1.1-0.7,1.9-0.9L22.5,42.8L22.5,42.8z M30.6,35.5
			c-6.2,16-8.8,15.8-8.8,15.8v0.6h4v-0.6c-1.2,0-0.4-1.7-0.4-1.7c0.4-0.7,0.8-1.5,1.3-2.3h6.6c0.6,1.3,1.1,2.2,1.1,2.2
			c0.7,1.2-0.3,1.8-0.3,1.8v0.6h5.7v-0.6C36.4,50.7,30.6,35.5,30.6,35.5z M27.2,46.3c1.4-2.9,2.7-5.9,2.7-5.9
			c0.3,0.8,1.7,3.6,2.9,5.9H27.2z M62.6,35.5c-6.2,16-8.8,15.8-8.8,15.8v0.6h4v-0.6c-1.2,0-0.4-1.7-0.4-1.7c0.4-0.7,0.8-1.5,1.3-2.3
			h6.6c0.6,1.3,1.1,2.2,1.1,2.2c0.7,1.2-0.3,1.8-0.3,1.8v0.6h5.7v-0.6C68.5,50.7,62.6,35.5,62.6,35.5z M59.3,46.3
			c1.4-2.9,2.7-5.9,2.7-5.9c0.3,0.8,1.7,3.6,2.9,5.9H59.3z M81.8,43.4c2.2-3,4.5-5.9,4.5-5.9c1.1-1.5,2.9-1.3,2.9-1.3v-0.7h-5.7v0.7
			c1.7,0.3,0.6,1.8,0.6,1.8l-1.5,2.3c-0.4,0.6-0.9,1.3-1.4,2c-1.4-2.3-2.4-4.2-2.4-4.2c-1.2-1.7,0.5-2,0.5-2v-0.7h-6.5v0.7
			c1.9,0.4,2.5,1.3,2.5,1.3c0.5,0.5,2.7,3.6,4.7,6.5c-2.4,3.1-4.7,5.9-4.7,5.9c-0.7,1-2.6,1.3-2.6,1.3v0.6h5.2v-0.6
			c-1.3-0.3-0.5-1.8-0.5-1.8c0.3-0.4,1.7-2.2,3.3-4.4c1.6,2.4,2.9,4.4,2.9,4.4c0.7,1.8-0.9,1.8-0.9,1.8v0.6h7.1v-0.6
			C87.5,51.3,84.2,47.1,81.8,43.4z M49.7,50.8h-2.3c-1.4,0-2-1.3-2-1.3V37.8c0-1.5,1.6-1.6,1.6-1.6v-0.7h-5.9v0.7
			c1.9,0.4,1.7,1.6,1.7,1.6v11.7c0,1.6-1.7,1.8-1.7,1.8v0.6h11.3c0.3-0.6,1.2-3.3,1.2-3.3C52.9,50.2,49.7,50.8,49.7,50.8z
			 M107.5,31.9c0,0-5.3-1.7-9.6,7.6c0,0-4-9.9-10.9-7.2c0,0,6.3-1,8.9,9.4c0,0,0.4,6.8,0,7.9c0,0,0.1,1.2-2.3,1.8v0.6h7.6v-0.6
			c0,0-2-0.2-2.1-1.8c0,0-0.5-6.1,0-7.9C99.1,41.6,100,33.2,107.5,31.9z M102.7,36.1h1.1v2.7h0.8v-2.7h1.1v-0.6h-3.1V36.1z
			 M108.8,35.6l-0.7,2.2l-0.7-2.2h-1.2v3.3h0.7v-2.6l0.8,2.6h0.8l0.8-2.6v2.6h0.7v-3.3H108.8z"/>
	</g>
</g>
<g id="U">
	<g>
		<path class="st0" d="M33.4,65.1v-4.2c0-0.6,0.6-0.8,0.6-0.8v-0.3l-1.5,0l-2.3,4.9L28,59.7l-1.7,0V60c0,0,0.5,0.2,0.5,0.8v4.2
			c0,0.8-0.5,0.8-0.7,0.8v0.3h1.7v-0.3c0,0-0.4-0.3-0.4-0.8v-4.5l2.3,5.5h0.5l2.3-5.5v4.5c0,0.6-0.4,0.8-0.4,0.8v0.3h2.2v-0.3
			C34.1,65.9,33.4,65.7,33.4,65.1z M43,59.7C40.6,66,39.6,66,39.6,66v0.2h1.6V66c-0.5,0-0.2-0.7-0.2-0.7c0.2-0.3,0.3-0.6,0.5-0.9
			h2.6c0.3,0.5,0.4,0.9,0.4,0.9c0.3,0.5-0.1,0.7-0.1,0.7v0.2h2.2V66C45.3,65.7,43,59.7,43,59.7z M41.7,64c0.6-1.1,1.1-2.3,1.1-2.3
			c0.1,0.3,0.7,1.4,1.1,2.3H41.7z M66.9,59.7C64.4,66,63.4,66,63.4,66v0.2H65V66c-0.5,0-0.2-0.7-0.2-0.7c0.2-0.3,0.3-0.6,0.5-0.9
			h2.6c0.3,0.5,0.4,0.9,0.4,0.9c0.3,0.5-0.1,0.7-0.1,0.7v0.2h2.2V66C69.2,65.7,66.9,59.7,66.9,59.7z M65.5,64
			c0.6-1.1,1.1-2.3,1.1-2.3c0.1,0.3,0.7,1.4,1.1,2.3H65.5z M55.1,65.7c-0.6-0.1-1.1-0.4-1.5-0.9c-0.5-0.6-0.7-1.2-0.7-2
			c0-0.8,0.3-1.5,0.8-2c0.5-0.5,1.2-0.7,2-0.7c0.1,0,0.3,0,0.4,0.1c0.6,0.2,1,0.5,1.3,0.8c0.1,0.1,0.2,0.3,0.3,0.4
			c0.1,0.2,0.2,0.4,0.2,0.4l0.2,0v-0.9c-0.5-0.9-1.5-1.1-2-1.1c-0.1,0-0.1,0-0.2,0c-0.9,0-1.6,0.1-2.1,0.4c-0.6,0.3-1,0.7-1.3,1.2
			c-0.3,0.5-0.5,1.1-0.5,1.7c0,0.6,0.1,1.2,0.4,1.7c0.3,0.5,0.7,0.9,1.2,1.1s1.2,0.4,1.9,0.4c0.2,0,0.5,0,0.7,0h0c0,0,0,0,0.1,0
			c0.2,0,0.4,0,0.6-0.1c0,0,0,0,0.1,0c0.1,0,0.2,0,0.2-0.1c0.9-0.3,1.1-0.8,1.1-0.8v-0.8H58C57.6,65.8,55.8,65.8,55.1,65.7z
			 M80.8,59.7V60c0,0,0.6,0.3,0.6,0.8v2.9c0,0.5,0,0.9-0.1,1.1c-0.1,0.2-0.2,0.4-0.4,0.6C80.5,65.8,80,66,79.4,66
			c-0.7,0-1.2-0.2-1.5-0.5c-0.2-0.2-0.3-0.4-0.3-0.6c0-0.2-0.1-0.6-0.1-1.3v-2.7c0-0.5,0.6-0.8,0.6-0.8v-0.3h-2.3V60
			c0,0,0.7,0.3,0.7,0.8v2.8c0,1.7,0.9,2.5,2.8,2.5c0.9,0,1.6-0.2,2.1-0.7c0.2-0.2,0.4-0.5,0.5-0.8c0.1-0.3,0.1-0.7,0.1-1.3v-2.6
			c0-0.6,0.7-0.8,0.7-0.8v-0.3L80.8,59.7L80.8,59.7z"/>
	</g>
</g>
<g id="形状_44_拷贝">
	<g>
		<path class="st1" d="M47.5,16.9c0,0-1.3,0.1-1.8,0.5c0,0,5.5,0.1,7.9,4.7c0,0,0.2-0.1,0.2-0.8C53.8,21.3,52.9,17.2,47.5,16.9z
			 M60.8,16.9c-5.4,0.2-6.2,4.4-6.2,4.4c-0.1,0.7,0.2,0.8,0.2,0.8c2.4-4.6,7.9-4.7,7.9-4.7C62.1,17,60.8,16.9,60.8,16.9z"/>
	</g>
</g>
<g id="形状_14_拷贝">
	<g>
		<path class="st2" d="M46.2,21.1c-2.7,0.7-2.8,1.4-2.8,1.4c7.6-1.7,10.8,4.2,10.8,4.2C54.1,20.8,46.2,21.1,46.2,21.1z M62.2,21.1
			c0,0-7.9-0.4-8,5.6c0,0,3.2-5.9,10.8-4.2C65,22.5,64.9,21.8,62.2,21.1z"/>
	</g>
</g>
<g id="形状_15_拷贝">
	<g>
		<path class="st3" d="M44.3,25.8c-3.4,0.8-5.2,2.8-5.2,2.8c10.3-3.8,15.1,2.8,15.1,2.8C52.6,24.6,44.3,25.8,44.3,25.8z M64.1,25.8
			c0,0-8.3-1.2-9.9,5.6c0,0,4.8-6.6,15.1-2.8C69.3,28.7,67.5,26.7,64.1,25.8z"/>
	</g>
</g>
<g id="形状_43_拷贝">
	<g>
		<path class="st4" d="M49.4,13.1c-0.9-0.1-1,0.2-1,0.2c2.8,0.7,4.5,4.5,4.5,4.5c0.5,0.1,0.5-0.5,0.5-0.5
			C52.9,14,49.4,13.1,49.4,13.1z M59,13.1c0,0-3.5,1-4,4.2c0,0,0,0.6,0.5,0.5c0,0,1.8-3.9,4.5-4.5C60,13.2,59.8,13,59,13.1z"/>
	</g>
</g>
<g id="形状_42_拷贝">
	<g>
		<path class="st0" d="M54.2,1.8c-0.4,0-0.7,2.7-0.7,6.1s0.3,6.1,0.7,6.1s0.7-2.7,0.7-6.1C54.9,4.6,54.6,1.8,54.2,1.8z M41.8,17.3
			c-5,12.2-9.6,12.4-9.6,12.4c-0.4,0.4,0.3,0.3,0.3,0.3C38.9,30.3,43,19.9,43,19.9c4.5-11.9,9.2-10.6,9.2-10.6
			c0.4-0.1,0.3-0.5,0.3-0.5C45.3,7.8,41.8,17.3,41.8,17.3z M76.1,29.7c0,0-4.5-0.3-9.6-12.4c0,0-3.4-9.5-10.7-8.4
			c0,0-0.1,0.4,0.3,0.5c0,0,4.7-1.3,9.2,10.6c0,0,4.1,10.4,10.4,10.1C75.7,30,76.5,30.1,76.1,29.7z"/>
	</g>
</g>
<g id="形状_31">
	<g>
		<path class="st0" d="M134.5,21.8c0,0,0.7-0.9,1.2-1.2c0,0-2-2.4-4.2-2.1C131.5,18.5,134.3,19.9,134.5,21.8z M131.5,24.2
			c0,0,2.8,1.4,3,3.3c0,0,0.7-0.9,1.2-1.2C135.7,26.3,133.7,23.9,131.5,24.2z M131.2,33.7c0.7,0.7,1.2,2.4,1.2,2.4
			c3.2-4.4,2.1-7.8,2.1-7.8C134.1,32.2,131.2,33.7,131.2,33.7z M149.5,30.1h-6.1c0.3-0.5,0.4-0.9,0.4-0.9h-2.4
			c0,0.3-0.1,0.6-0.2,0.9H136v1.2h4.7c-1.5,3.1-5,4.8-5,4.8c3.6-0.4,5.8-2.9,7-4.8h0.5h6.3L149.5,30.1L149.5,30.1z M147.1,24.2h-3.9
			v-2.7H142v2.7h-3.6v1.2h3.6v2.7h1.2v-2.7h3.9V24.2z M140.2,21.7l-0.7,0.7c0.8,0.3,1.3,1.6,1.3,1.6
			C141.2,22.6,140.2,21.7,140.2,21.7z M145.6,22.3l-0.7-0.7c0,0-1.1,0.9-0.7,2.3C144.3,24,144.8,22.6,145.6,22.3z M141.4,25.7h-0.9
			c0,1.2-1.2,2.7-1.2,2.7C141.2,28.4,141.4,25.7,141.4,25.7z M145,28.4h0.9c0,0-0.2-2.7-2.1-2.7C143.8,25.7,145,27.2,145,28.4z
			 M137.8,20.6h9.9v8.7h1.2v-9.9h-6.3l1.5-1.6H142l-1.5,1.6h-3.9v9.9h1.2L137.8,20.6L137.8,20.6z M143.2,31.3v0.6
			c0,0,1.3,2.8,5.7,4.2c0,0,0.4-1.5,0.9-1.8C149.8,34.3,143.6,32.8,143.2,31.3z"/>
	</g>
</g>
<g id="矩形_3_拷贝_10">
	<g>
		<path class="st0" d="M159.7,35.9h1.5V26h5.4v-8.1h-6.9V35.9z M161.2,18.8h3.9v2.4h-3.9V18.8z M161.2,22.1h3.9v3h-3.9V22.1z
			 M176.2,32V17.9h-6.9V26h5.4v6.3c0,2.9-3.3,2.4-3.3,2.4l1.5,1.2C176.8,35.9,176.2,32,176.2,32z M174.7,25.1h-3.9v-3h3.9V25.1z
			 M174.7,21.2h-3.9v-2.4h3.9V21.2z"/>
	</g>
</g>
<g id="形状_40">
	<g>
		<path class="st0" d="M191.4,19.3c0,0,1.5,1.6,1.5,3h1.2C194.1,22.3,194.4,20.7,191.4,19.3z M189.6,32.2c0,0-1-2.7-3-3.6
			c0,0,1.2,1.6,1.2,3.6H189.6z M191.4,24.4h1.5v-0.9h-4.6c2.7-2.6,3.7-5.5,3.7-5.5h-2.7c-0.1,4.8-3.3,7.3-3.3,7.3
			c0.8-0.5,1.5-1.1,2.1-1.6v0.7h1.8v2.1h-3v0.9h3v6.3c-1.6,0.4-3,0.6-3,0.6c1.3,0.9,1.8,1.5,1.8,1.5c0.7-0.3,1.7-1.1,2.5-1.8h0.2
			v-0.1c0.8-0.7,1.5-1.4,1.5-1.4c-0.5,0.3-1,0.5-1.5,0.7v-1.9c1.8-1.3,1.8-3,1.8-3c-0.4,1-1.3,1.5-1.8,1.7v-2.6h2.4v-0.9h-2.4
			L191.4,24.4L191.4,24.4z M196.5,33.7v-7.5h6.3v-7.8H195V19c0,0,0,0.1,0,0.3v12.3c0,0.9,0,1.5,0,1.5v1.5c0.7,1.8,1.5,1.2,1.5,1.2
			c0.9-0.6,2.7-2.7,2.7-2.7v-0.3C197.8,34,196.5,33.7,196.5,33.7z M196.5,19.3h4.8V22h-4.8V19.3z M196.5,22.9h4.8v2.4h-4.8V22.9z
			 M198,26.5c0,0,1.7,7.7,6,9c0,0,0.7-0.5,0.9-1.8C204.9,33.7,202.9,34,198,26.5z M200.7,30.1c2.2,0,3.6-2.4,3.6-2.4h-2.1
			C201.9,29.4,200.7,30.1,200.7,30.1z"/>
	</g>
</g>
<g id="矩形_3_拷贝_23">
	<g>
		<path class="st0" d="M213.9,18.4c0,0,2.8,1.4,3,3.3c0,0,0.7-0.9,1.2-1.2C218.1,20.5,216.1,18.1,213.9,18.4z M213.9,24.1
			c0,0,2.8,1.4,3,3.3c0,0,0.7-0.9,1.2-1.2C218.1,26.2,216.1,23.8,213.9,24.1z M213.6,33.7c0.7,0.7,1.2,2.4,1.2,2.4
			c3.2-4.4,2.1-7.8,2.1-7.8C216.5,32.2,213.6,33.7,213.6,33.7z M218.7,17.8V19h10.5v10.2v1.2V31c0,0-0.7,3.5-5.4,3.6
			c0,0,1.5,0,1.8,1.2c0,0,5.1-1.4,5.1-4.5v-0.9v-1.2V19h1.5v-1.2L218.7,17.8L218.7,17.8z M226.5,30.1v-1.2v-6v-0.6v-0.6h-6.3v0.6
			v0.6c0,1.3,0,4.3,0,6V29v1.1h1.5h3.3C225,30.1,226.5,30.1,226.5,30.1z M221.7,22.9h3.3c0,1.3,0,4.3,0,6h-3.3V22.9z"/>
	</g>
</g>
<rect x="119.7" y="18.2" class="st0" width="0.8" height="40.3"/>
<g id="_x39_9YH.COM" class="st5">
	<g class="st6">
		<path class="st0" d="M135.9,43.7c-2.9,0-4.7,1.8-4.7,4.6c0,1.2,0.4,2.4,1.2,3.1s1.8,1.1,3.1,1.1c1.3,0,2.3-0.4,3.2-1.2
			c0.3-0.3,0.5-0.5,0.7-1c0,0.9-0.1,1.6-0.2,2c-0.1,0.8-0.4,1.7-0.7,2.2c-0.6,1.1-1.5,1.6-2.8,1.6c-1,0-1.7-0.3-2.2-0.8
			c-0.3-0.3-0.4-0.5-0.6-1.1l-1.4,0.5c0.5,0.9,0.7,1.3,1.2,1.7c0.7,0.6,1.7,0.9,2.9,0.9c1.6,0,2.7-0.5,3.6-1.6
			c0.9-1.2,1.4-3.1,1.4-5.5c0-1.5-0.2-2.7-0.5-3.6C139.4,44.8,137.8,43.7,135.9,43.7z M135.7,51.4c-1.9,0-3.1-1.2-3.1-3.2
			c0-0.7,0.2-1.4,0.5-1.8c0.6-0.9,1.6-1.5,2.8-1.5c1.9,0,3.3,1.4,3.3,3.3C139,50,137.6,51.4,135.7,51.4z M148.2,43.7
			c-2.9,0-4.7,1.8-4.7,4.6c0,1.2,0.4,2.4,1.2,3.1s1.8,1.1,3.1,1.1c1.3,0,2.3-0.4,3.2-1.2c0.3-0.3,0.5-0.5,0.7-1c0,0.9-0.1,1.6-0.2,2
			c-0.1,0.8-0.4,1.7-0.7,2.2c-0.6,1.1-1.5,1.6-2.8,1.6c-1,0-1.7-0.3-2.2-0.8c-0.3-0.3-0.4-0.5-0.6-1.1l-1.4,0.5
			c0.5,0.9,0.7,1.3,1.2,1.7c0.7,0.6,1.7,0.9,2.9,0.9c1.6,0,2.7-0.5,3.6-1.6c0.9-1.2,1.4-3.1,1.4-5.5c0-1.5-0.2-2.7-0.5-3.6
			C151.7,44.8,150.1,43.7,148.2,43.7z M147.9,51.4c-1.9,0-3.1-1.2-3.1-3.2c0-0.7,0.2-1.4,0.5-1.8c0.6-0.9,1.6-1.5,2.8-1.5
			c1.9,0,3.3,1.4,3.3,3.3C151.3,50,149.9,51.4,147.9,51.4z M163.9,45.6l-3,4.8l-3-4.8c-0.5-0.9-0.7-1.2-0.9-1.6h-1.9
			c0.3,0.5,0.6,0.9,1,1.5l4,6.2v3.6c0,0.8,0,1.3-0.1,1.9h1.7c-0.1-0.6-0.1-1.1-0.1-1.9v-3.6l4-6.2c0.5-0.7,0.8-1.2,1.1-1.5h-1.9
			C164.6,44.4,164.4,44.8,163.9,45.6z M179.9,44h-1.6c0.1,0.6,0.1,1.1,0.1,1.9v3.7h-7.9v-3.7c0-0.8,0-1.3,0.1-1.9H169
			c0.1,0.6,0.1,1.1,0.1,1.9v9.3c0,0.9,0,1.4-0.1,1.9h1.6c-0.1-0.6-0.1-1.1-0.1-1.9v-4.4h7.9v4.4c0,0.8,0,1.3-0.1,1.9h1.6
			c-0.1-0.7-0.1-1.1-0.1-1.9v-9.4C179.7,45.1,179.8,44.6,179.9,44z M183.3,57.2h1.7v-1.7h-1.7V57.2z M197.3,54.7
			c-0.7,0.9-1.9,1.5-3.3,1.5c-2.8,0-4.6-2.2-4.6-5.6c0-3.5,1.8-5.6,4.6-5.6c1.3,0,2.3,0.4,3,1.3c0.4,0.4,0.6,0.8,0.8,1.5l1.4-0.4
			c-0.4-1.1-0.7-1.6-1.4-2.2c-0.9-0.9-2.3-1.4-3.9-1.4c-1.7,0-3,0.5-4,1.5c-1.3,1.3-2,3.2-2,5.4c0,2.2,0.7,4.1,1.9,5.3
			c1,1,2.4,1.5,4.1,1.5c1.9,0,3.5-0.7,4.5-2c0.4-0.6,0.6-1,0.9-2.1L198,53C197.8,53.8,197.6,54.2,197.3,54.7z M208.1,43.7
			c-3.7,0-6,2.7-6,6.9c0,4.2,2.3,6.9,6,6.9s6-2.7,6-6.9C214.1,46.4,211.7,43.7,208.1,43.7z M211.1,55c-0.8,0.8-1.8,1.2-3,1.2
			c-2.8,0-4.6-2.2-4.6-5.7s1.8-5.6,4.6-5.6c1.2,0,2.2,0.4,3,1.2c1,1,1.5,2.5,1.5,4.5C212.6,52.4,212.1,54.1,211.1,55z M230.8,46
			c0-0.9,0-1.4,0.1-2.1h-2c-0.1,0.5-0.3,1-0.6,1.7l-4.3,9.6l-4.3-9.6c-0.3-0.6-0.5-1.2-0.6-1.7h-2c0.1,0.6,0.1,1.2,0.1,2.1v9.1
			c0,0.9,0,1.4-0.1,2.1h1.6c-0.1-0.6-0.1-1.1-0.1-2.1v-7.4c0-0.4-0.1-1.5-0.1-2.2c0.3,1.1,0.5,1.6,0.8,2.2l3.5,7.8
			c0.3,0.8,0.6,1.4,0.6,1.8h1.2c0.1-0.6,0.3-1,0.7-1.8l3.5-7.8c0.3-0.7,0.6-1.4,0.7-2.1c-0.1,0.7-0.1,1.7-0.1,2.1v7.5
			c0,0.8,0,1.5-0.1,2.1h1.6c-0.1-0.6-0.1-1.1-0.1-2.1L230.8,46L230.8,46z"/>
	</g>
</g>
<g class="st5">
	<path class="st7" d="M136.3,56.9c0.1-0.6,0.1-1.1,0.1-1.8v-3.3l-3.7-5.7c-0.4-0.6-0.6-1-1-1.4h1.7c0.1,0.4,0.3,0.7,0.8,1.5l2.8,4.4
		l2.8-4.4c0.4-0.7,0.6-1.1,0.8-1.5h1.8c-0.2,0.3-0.6,0.7-1,1.4l-3.7,5.7v3.3c0,0.8,0,1.2,0.1,1.8H136.3z"/>
	<path class="st7" d="M156.2,44.7c-0.1,0.6-0.1,1-0.1,1.8v8.6c0,0.8,0,1.2,0.1,1.8h-1.5c0.1-0.6,0.1-1,0.1-1.8v-4h-7.2v4
		c0,0.8,0,1.2,0.1,1.8h-1.5c0.1-0.5,0.1-1,0.1-1.8v-8.6c0-0.8,0-1.2-0.1-1.8h1.5c-0.1,0.6-0.1,1-0.1,1.8v3.4h7.2v-3.4
		c0-0.8,0-1.2-0.1-1.8H156.2z"/>
	<path class="st7" d="M168.4,51.2c0.8,0.6,1.2,1.4,1.2,2.5c0,2.2-1.6,3.4-4.4,3.4c-2.9,0-4.5-1.2-4.5-3.4c0-1.2,0.5-2,1.4-2.7
		c0.5-0.3,0.8-0.4,1.4-0.5c-1.4-0.3-2.3-1.4-2.3-2.9c0-1.9,1.5-3.2,3.9-3.2c2.4,0,4,1.2,4,3.2c0,1.5-0.9,2.6-2.3,2.9
		C167.4,50.6,167.9,50.8,168.4,51.2z M162,53.6c0,1.5,1.2,2.4,3.2,2.4c1.1,0,2-0.3,2.6-0.8c0.4-0.4,0.6-0.9,0.6-1.6
		c0-1.6-1.2-2.5-3.2-2.5S162,52.1,162,53.6z M162.4,47.7c0,1.4,1,2.3,2.7,2.3s2.7-0.9,2.7-2.3c0-1.3-1.1-2.2-2.7-2.2
		C163.5,45.5,162.4,46.4,162.4,47.7z"/>
	<path class="st7" d="M181.4,51.2c0.8,0.6,1.2,1.4,1.2,2.5c0,2.2-1.6,3.4-4.4,3.4c-2.9,0-4.5-1.2-4.5-3.4c0-1.2,0.5-2,1.4-2.7
		c0.5-0.3,0.8-0.4,1.4-0.5c-1.4-0.3-2.3-1.4-2.3-2.9c0-1.9,1.5-3.2,3.9-3.2c2.4,0,4,1.2,4,3.2c0,1.5-0.9,2.6-2.3,2.9
		C180.4,50.6,180.8,50.8,181.4,51.2z M174.9,53.6c0,1.5,1.2,2.4,3.2,2.4c1.1,0,2-0.3,2.6-0.8c0.4-0.4,0.6-0.9,0.6-1.6
		c0-1.6-1.2-2.5-3.2-2.5S174.9,52.1,174.9,53.6z M175.4,47.7c0,1.4,1,2.3,2.7,2.3c1.7,0,2.7-0.9,2.7-2.3c0-1.3-1.1-2.2-2.7-2.2
		C176.5,45.5,175.4,46.4,175.4,47.7z"/>
	<path class="st7" d="M188.5,55.3v1.6h-1.6v-1.6H188.5z"/>
	<path class="st7" d="M195,44.7c0.1,0.4,0.4,0.7,0.8,1.4l5.1,7.6c0.2,0.3,0.7,1.1,1,1.7c-0.1-1.3-0.1-2-0.1-2.1v-6.8
		c0-0.8,0-1.3-0.1-1.8h1.5c-0.1,0.6-0.1,1-0.1,1.8v8.5c0,0.8,0,1.3,0.1,1.8h-1.7c-0.2-0.5-0.4-0.8-0.8-1.4l-5.1-7.7
		c-0.1-0.2-0.7-1.1-0.9-1.5c0.1,0.8,0.1,1.5,0.1,2V55c0,0.8,0,1.4,0.1,1.9h-1.5c0.1-0.5,0.1-1.1,0.1-1.9v-8.5c0-0.7,0-1.2-0.1-1.8
		H195z"/>
	<path class="st7" d="M216.4,57c-0.5-0.1-0.9-0.1-1.8-0.1h-4.7c-0.8,0-1.2,0-1.8,0c0.1-0.6,0.1-1.1,0.1-1.9v-8.5
		c0-0.7,0-1.1-0.1-1.8c0.6,0,1,0,1.8,0h4.6c0.7,0,1.2,0,1.8-0.1V46c-0.6-0.1-1-0.1-1.8-0.1h-4.9v4.1h4.2c0.7,0,1.2,0,1.8-0.1v1.3
		c-0.5-0.1-1-0.1-1.8-0.1h-4.2v4.7h5.1c0.7,0,1.2,0,1.8-0.1V57z"/>
	<path class="st7" d="M225.5,55.1c0,0.8,0,1.2,0.1,1.8h-1.5c0.1-0.5,0.1-1.1,0.1-1.8v-9.2h-2.5c-0.8,0-1.3,0-1.8,0.1v-1.3
		c0.6,0.1,1,0.1,1.8,0.1h6.2c0.9,0,1.4,0,1.9-0.1V46c-0.5-0.1-1-0.1-1.9-0.1h-2.5V55.1z"/>
</g>
<g>
	<path class="st0" d="M138.8,46.9c-0.2-0.5-0.3-0.7-0.6-1c-0.5-0.5-1.1-0.8-1.9-0.8c-1.2,0-2.2,0.7-2.8,2c-0.4,1-0.6,1.7-0.7,3.4
		c0.3-0.5,0.4-0.7,0.8-1c0.8-0.7,1.6-1,2.7-1c2.5,0,4,1.5,4,4c0,2.5-1.7,4.1-4.2,4.1c-1.1,0-2.2-0.4-2.9-1c-1-1-1.6-2.8-1.6-5
		c0-2,0.4-3.8,1.2-4.8c0.8-1.2,2-1.7,3.4-1.7c1,0,1.8,0.2,2.4,0.7c0.6,0.4,0.9,0.8,1.3,1.8L138.8,46.9z M136.2,49.6
		c-0.8,0-1.6,0.4-2.2,0.9c-0.5,0.5-0.8,1.2-0.8,2c0,1.7,1.3,3,3,3c1,0,2-0.5,2.5-1.3c0.3-0.4,0.4-1.1,0.4-1.7
		C139.1,50.7,138.1,49.6,136.2,49.6z"/>
	<path class="st0" d="M151.5,50.7c0.8,0.6,1.2,1.4,1.2,2.5c0,2.2-1.6,3.4-4.4,3.4c-2.9,0-4.5-1.2-4.5-3.4c0-1.2,0.5-2,1.4-2.7
		c0.5-0.3,0.8-0.4,1.4-0.5c-1.4-0.3-2.3-1.4-2.3-2.9c0-1.9,1.5-3.2,3.9-3.2c2.4,0,4,1.2,4,3.2c0,1.5-0.9,2.6-2.3,2.9
		C150.5,50.1,151,50.3,151.5,50.7z M145.1,53.2c0,1.5,1.2,2.4,3.2,2.4c1.1,0,2-0.3,2.6-0.8c0.4-0.4,0.6-0.9,0.6-1.6
		c0-1.6-1.2-2.5-3.2-2.5S145.1,51.6,145.1,53.2z M145.6,47.2c0,1.4,1,2.3,2.7,2.3s2.7-0.9,2.7-2.3c0-1.3-1.1-2.2-2.7-2.2
		C146.6,45.1,145.6,45.9,145.6,47.2z"/>
	<path class="st0" d="M160,56.4c0.1-0.6,0.1-1.1,0.1-1.8v-3.3l-3.7-5.7c-0.4-0.6-0.6-1-1-1.4h1.7c0.1,0.4,0.3,0.7,0.8,1.5l2.8,4.4
		l2.8-4.4c0.4-0.7,0.6-1.1,0.8-1.5h1.8c-0.2,0.3-0.6,0.7-1,1.4l-3.7,5.7v3.3c0,0.8,0,1.2,0.1,1.8H160z"/>
	<path class="st0" d="M179.2,44.2c-0.1,0.6-0.1,1-0.1,1.8v8.6c0,0.8,0,1.2,0.1,1.8h-1.5c0.1-0.6,0.1-1,0.1-1.8v-4h-7.2v4
		c0,0.8,0,1.2,0.1,1.8h-1.5c0.1-0.5,0.1-1,0.1-1.8V46c0-0.8,0-1.2-0.1-1.8h1.5c-0.1,0.6-0.1,1-0.1,1.8v3.4h7.2V46
		c0-0.8,0-1.2-0.1-1.8H179.2z"/>
	<path class="st0" d="M184.8,54.8v1.6h-1.6v-1.6H184.8z"/>
	<path class="st0" d="M197.6,47.7c-0.2-0.7-0.4-1-0.8-1.4c-0.6-0.8-1.6-1.2-2.8-1.2c-2.6,0-4.2,2-4.2,5.2c0,3.2,1.6,5.2,4.2,5.2
		c1.3,0,2.3-0.5,3-1.3c0.3-0.5,0.5-0.9,0.6-1.6l1.3,0.3c-0.3,0.9-0.5,1.4-0.9,1.9c-0.9,1.2-2.4,1.9-4.1,1.9c-1.5,0-2.8-0.5-3.7-1.4
		c-1.1-1.1-1.7-2.9-1.7-4.9c0-2.1,0.6-3.8,1.8-5c0.9-0.9,2.1-1.4,3.7-1.4c1.5,0,2.7,0.4,3.6,1.3c0.6,0.5,0.9,1,1.2,2L197.6,47.7z"/>
	<path class="st0" d="M213.4,50.3c0,3.9-2.2,6.3-5.5,6.3c-3.4,0-5.5-2.5-5.5-6.3c0-3.8,2.2-6.3,5.5-6.3
		C211.3,44,213.4,46.5,213.4,50.3z M210.7,54.4c0.9-0.9,1.4-2.4,1.4-4.1c0-1.8-0.5-3.2-1.4-4.1c-0.7-0.7-1.7-1.1-2.8-1.1
		c-2.6,0-4.2,2-4.2,5.2c0,3.1,1.7,5.2,4.3,5.2C209,55.5,210,55.1,210.7,54.4z"/>
	<path class="st0" d="M219.2,47.6c-0.2-0.5-0.4-1-0.7-2c0,0.7,0.1,1.7,0.1,2.1v6.9c0,0.8,0,1.3,0.1,1.9h-1.5
		c0.1-0.6,0.1-1.1,0.1-1.9v-8.4c0-0.8,0-1.3-0.1-1.9h1.9c0.1,0.5,0.3,1.1,0.5,1.6l4,8.8l3.9-8.8c0.3-0.6,0.4-1.1,0.5-1.6h1.8
		c-0.1,0.6-0.1,1.1-0.1,1.9v8.4c0,0.9,0,1.3,0.1,1.9h-1.5c0.1-0.5,0.1-1.1,0.1-1.9v-6.9c0-0.4,0-1.3,0.1-2c-0.2,0.7-0.4,1.3-0.7,2
		l-3.3,7.2c-0.3,0.7-0.5,1.1-0.6,1.7H223c-0.1-0.4-0.3-1-0.6-1.7L219.2,47.6z"/>
</g>
</svg>
